# xmcd
#
# Track frame offsets: 
#        150
#        24359
#        40486
#        54808
#        75869
#        90444
#        113015
#        133176
#        150743
#        184962
#        204635
#        223237
#        242744
#        260212
#        279911
#        301300
#        326809
#
# Disc length: 4648 seconds
#
# Revision: 0
# Processed by: cddbd v1.5.2PL0 Copyright (c) Steve Scherf et al.
# Submitted via: ExactAudioCopy v1.0b1
#
DISCID=eb122611
DTITLE=大事MANブラザーズバンド - GOLDEN☆BEST
DYEAR=2005
DGENRE=JPop
TTITLE0=それが大事
TTITLE1=Mo-Rio
TTITLE2=きれいな花を咲かせましょう
TTITLE3=うたをうたおう
TTITLE4=Mr. Miss JYANEN
TTITLE5=Birthday Time
TTITLE6=素直でいれる
TTITLE7=お別れにCry On
TTITLE8=愛しい人と逢える時
TTITLE9=青春の弱点
TTITLE10=これが最後のLove
TTITLE11=賽は投げられた
TTITLE12=Bye-Love
TTITLE13=愛と勇気のMerry X'mas
TTITLE14=キボウ
TTITLE15=確実に君を愛してる
TTITLE16=幸せな日々
EXTD=
EXTT0=
EXTT1=
EXTT2=
EXTT3=
EXTT4=
EXTT5=
EXTT6=
EXTT7=
EXTT8=
EXTT9=
EXTT10=
EXTT11=
EXTT12=
EXTT13=
EXTT14=
EXTT15=
EXTT16=
PLAYORDER=
